<?xml version="1.0" standalone="no"?>
<!DOCTYPE svg PUBLIC "-//W3C//DTD SVG 20010904//EN"
 "http://www.w3.org/TR/2001/REC-SVG-20010904/DTD/svg10.dtd">
<svg version="1.0" xmlns="http://www.w3.org/2000/svg"
 width="500.000000pt" height="500.000000pt" viewBox="0 0 500.000000 500.000000"
 preserveAspectRatio="xMidYMid meet">

<g transform="translate(0.000000,500.000000) scale(0.100000,-0.100000)"
fill="#000000" stroke="none">
<path d="M2355 3615 c-233 -51 -427 -226 -498 -450 -18 -58 -22 -93 -22 -205
1 -120 4 -143 27 -208 38 -106 83 -176 163 -257 81 -81 170 -136 270 -168 94
-30 301 -32 385 -4 229 77 387 236 455 457 25 83 30 230 11 320 -44 210 -208
404 -406 482 -122 48 -262 60 -385 33z m270 -110 c98 -25 184 -74 255 -145
224 -223 226 -562 5 -786 -218 -221 -562 -220 -782 1 -220 223 -219 558 1 780
138 140 337 197 521 150z"/>
<path d="M2295 3382 c-102 -54 -225 -178 -255 -257 -72 -194 40 -477 225 -567
36 -18 46 -19 59 -8 26 21 19 38 -26 66 -130 82 -196 188 -214 345 -16 142 82
281 263 373 61 30 68 39 53 66 -14 27 -24 25 -105 -18z"/>
<path d="M2315 2185 c-30 -29 -31 -45 -6 -76 18 -23 27 -24 146 -27 70 -2 137
-1 150 2 34 9 55 34 55 66 0 51 -27 60 -183 60 -133 0 -139 -1 -162 -25z"/>
<path d="M2453 1980 c-21 -13 -35 -31 -42 -57 -7 -23 -11 -169 -11 -375 l0
-336 26 -31 c32 -39 80 -49 124 -26 58 30 60 47 60 432 0 315 -2 350 -18 369
-38 47 -88 56 -139 24z"/>
</g>
</svg>
