<svg xmlns="http://www.w3.org/2000/svg" xmlns:xlink="http://www.w3.org/1999/xlink" width="500" zoomAndPan="magnify" viewBox="0 0 375 374.999991" height="500" preserveAspectRatio="xMidYMid meet" version="1.0"><defs><linearGradient x1="8.558977" gradientTransform="matrix(1.559766, 0, 0, 1.559766, -13.349994, -12.75427)" y1="129.345993" x2="248.979692" gradientUnits="userSpaceOnUse" y2="129.345993" id="e339b71b8b"><stop stop-opacity="1" stop-color="rgb(100%, 95.875549%, 68.795776%)" offset="0"/><stop stop-opacity="1" stop-color="rgb(100%, 95.762634%, 68.904114%)" offset="0.0078125"/><stop stop-opacity="1" stop-color="rgb(100%, 95.53833%, 69.122314%)" offset="0.015625"/><stop stop-opacity="1" stop-color="rgb(100%, 95.314026%, 69.342041%)" offset="0.0234375"/><stop stop-opacity="1" stop-color="rgb(100%, 95.089722%, 69.560242%)" offset="0.03125"/><stop stop-opacity="1" stop-color="rgb(100%, 94.865417%, 69.778442%)" offset="0.0390625"/><stop stop-opacity="1" stop-color="rgb(100%, 94.641113%, 69.998169%)" offset="0.046875"/><stop stop-opacity="1" stop-color="rgb(100%, 94.416809%, 70.21637%)" offset="0.0546875"/><stop stop-opacity="1" stop-color="rgb(100%, 94.190979%, 70.43457%)" offset="0.0625"/><stop stop-opacity="1" stop-color="rgb(100%, 93.966675%, 70.652771%)" offset="0.0703125"/><stop stop-opacity="1" stop-color="rgb(100%, 93.742371%, 70.872498%)" offset="0.078125"/><stop stop-opacity="1" stop-color="rgb(100%, 93.518066%, 71.090698%)" offset="0.0859375"/><stop stop-opacity="1" stop-color="rgb(100%, 93.293762%, 71.308899%)" offset="0.09375"/><stop stop-opacity="1" stop-color="rgb(100%, 93.069458%, 71.528625%)" offset="0.101562"/><stop stop-opacity="1" stop-color="rgb(100%, 92.845154%, 71.746826%)" offset="0.109375"/><stop stop-opacity="1" stop-color="rgb(100%, 92.619324%, 71.965027%)" offset="0.117188"/><stop stop-opacity="1" stop-color="rgb(100%, 92.39502%, 72.184753%)" offset="0.125"/><stop stop-opacity="1" stop-color="rgb(100%, 92.170715%, 72.402954%)" offset="0.132812"/><stop stop-opacity="1" stop-color="rgb(100%, 91.946411%, 72.621155%)" offset="0.140625"/><stop stop-opacity="1" stop-color="rgb(100%, 91.722107%, 72.839355%)" offset="0.148438"/><stop stop-opacity="1" stop-color="rgb(100%, 91.497803%, 73.059082%)" offset="0.15625"/><stop stop-opacity="1" stop-color="rgb(100%, 91.273499%, 73.277283%)" offset="0.164063"/><stop stop-opacity="1" stop-color="rgb(100%, 91.049194%, 73.495483%)" offset="0.171875"/><stop stop-opacity="1" stop-color="rgb(100%, 90.823364%, 73.71521%)" offset="0.179688"/><stop stop-opacity="1" stop-color="rgb(100%, 90.59906%, 73.933411%)" offset="0.1875"/><stop stop-opacity="1" stop-color="rgb(100%, 90.374756%, 74.151611%)" offset="0.195312"/><stop stop-opacity="1" stop-color="rgb(100%, 90.150452%, 74.369812%)" offset="0.203125"/><stop stop-opacity="1" stop-color="rgb(100%, 89.926147%, 74.589539%)" offset="0.210938"/><stop stop-opacity="1" stop-color="rgb(100%, 89.701843%, 74.807739%)" offset="0.21875"/><stop stop-opacity="1" stop-color="rgb(100%, 89.477539%, 75.02594%)" offset="0.226563"/><stop stop-opacity="1" stop-color="rgb(100%, 89.251709%, 75.245667%)" offset="0.234375"/><stop stop-opacity="1" stop-color="rgb(100%, 89.027405%, 75.463867%)" offset="0.242188"/><stop stop-opacity="1" stop-color="rgb(100%, 88.803101%, 75.682068%)" offset="0.25"/><stop stop-opacity="1" stop-color="rgb(100%, 88.578796%, 75.900269%)" offset="0.257812"/><stop stop-opacity="1" stop-color="rgb(100%, 88.354492%, 76.119995%)" offset="0.265625"/><stop stop-opacity="1" stop-color="rgb(100%, 88.130188%, 76.338196%)" offset="0.273438"/><stop stop-opacity="1" stop-color="rgb(100%, 87.905884%, 76.556396%)" offset="0.28125"/><stop stop-opacity="1" stop-color="rgb(100%, 87.680054%, 76.776123%)" offset="0.289062"/><stop stop-opacity="1" stop-color="rgb(100%, 87.45575%, 76.994324%)" offset="0.296875"/><stop stop-opacity="1" stop-color="rgb(100%, 87.231445%, 77.212524%)" offset="0.304688"/><stop stop-opacity="1" stop-color="rgb(100%, 87.007141%, 77.430725%)" offset="0.3125"/><stop stop-opacity="1" stop-color="rgb(100%, 86.782837%, 77.650452%)" offset="0.320313"/><stop stop-opacity="1" stop-color="rgb(100%, 86.558533%, 77.868652%)" offset="0.328125"/><stop stop-opacity="1" stop-color="rgb(100%, 86.334229%, 78.086853%)" offset="0.335938"/><stop stop-opacity="1" stop-color="rgb(100%, 86.108398%, 78.30658%)" offset="0.34375"/><stop stop-opacity="1" stop-color="rgb(100%, 85.884094%, 78.52478%)" offset="0.351562"/><stop stop-opacity="1" stop-color="rgb(100%, 85.65979%, 78.742981%)" offset="0.359375"/><stop stop-opacity="1" stop-color="rgb(100%, 85.435486%, 78.962708%)" offset="0.367188"/><stop stop-opacity="1" stop-color="rgb(100%, 85.211182%, 79.180908%)" offset="0.375"/><stop stop-opacity="1" stop-color="rgb(100%, 84.986877%, 79.399109%)" offset="0.382812"/><stop stop-opacity="1" stop-color="rgb(100%, 84.762573%, 79.61731%)" offset="0.390625"/><stop stop-opacity="1" stop-color="rgb(100%, 84.538269%, 79.837036%)" offset="0.398438"/><stop stop-opacity="1" stop-color="rgb(100%, 84.312439%, 80.055237%)" offset="0.40625"/><stop stop-opacity="1" stop-color="rgb(100%, 84.088135%, 80.273438%)" offset="0.414062"/><stop stop-opacity="1" stop-color="rgb(100%, 83.863831%, 80.493164%)" offset="0.421875"/><stop stop-opacity="1" stop-color="rgb(100%, 83.639526%, 80.711365%)" offset="0.429688"/><stop stop-opacity="1" stop-color="rgb(100%, 83.415222%, 80.929565%)" offset="0.4375"/><stop stop-opacity="1" stop-color="rgb(100%, 83.190918%, 81.147766%)" offset="0.445313"/><stop stop-opacity="1" stop-color="rgb(100%, 82.966614%, 81.367493%)" offset="0.453125"/><stop stop-opacity="1" stop-color="rgb(100%, 82.740784%, 81.585693%)" offset="0.460938"/><stop stop-opacity="1" stop-color="rgb(100%, 82.516479%, 81.803894%)" offset="0.46875"/><stop stop-opacity="1" stop-color="rgb(100%, 82.292175%, 82.023621%)" offset="0.476562"/><stop stop-opacity="1" stop-color="rgb(100%, 82.067871%, 82.241821%)" offset="0.484375"/><stop stop-opacity="1" stop-color="rgb(100%, 81.843567%, 82.460022%)" offset="0.492188"/><stop stop-opacity="1" stop-color="rgb(100%, 81.619263%, 82.678223%)" offset="0.5"/><stop stop-opacity="1" stop-color="rgb(100%, 81.394958%, 82.897949%)" offset="0.507812"/><stop stop-opacity="1" stop-color="rgb(100%, 81.169128%, 83.11615%)" offset="0.515625"/><stop stop-opacity="1" stop-color="rgb(100%, 80.944824%, 83.334351%)" offset="0.523437"/><stop stop-opacity="1" stop-color="rgb(100%, 80.72052%, 83.554077%)" offset="0.53125"/><stop stop-opacity="1" stop-color="rgb(100%, 80.496216%, 83.772278%)" offset="0.539062"/><stop stop-opacity="1" stop-color="rgb(100%, 80.271912%, 83.990479%)" offset="0.546875"/><stop stop-opacity="1" stop-color="rgb(100%, 80.047607%, 84.208679%)" offset="0.554687"/><stop stop-opacity="1" stop-color="rgb(100%, 79.823303%, 84.428406%)" offset="0.5625"/><stop stop-opacity="1" stop-color="rgb(100%, 79.598999%, 84.646606%)" offset="0.570312"/><stop stop-opacity="1" stop-color="rgb(100%, 79.373169%, 84.864807%)" offset="0.578125"/><stop stop-opacity="1" stop-color="rgb(100%, 79.148865%, 85.084534%)" offset="0.585938"/><stop stop-opacity="1" stop-color="rgb(100%, 78.924561%, 85.302734%)" offset="0.59375"/><stop stop-opacity="1" stop-color="rgb(100%, 78.700256%, 85.520935%)" offset="0.601562"/><stop stop-opacity="1" stop-color="rgb(100%, 78.475952%, 85.740662%)" offset="0.609375"/><stop stop-opacity="1" stop-color="rgb(100%, 78.251648%, 85.958862%)" offset="0.617187"/><stop stop-opacity="1" stop-color="rgb(100%, 78.027344%, 86.177063%)" offset="0.625"/><stop stop-opacity="1" stop-color="rgb(100%, 77.801514%, 86.395264%)" offset="0.632812"/><stop stop-opacity="1" stop-color="rgb(100%, 77.577209%, 86.61499%)" offset="0.640625"/><stop stop-opacity="1" stop-color="rgb(100%, 77.352905%, 86.833191%)" offset="0.648437"/><stop stop-opacity="1" stop-color="rgb(100%, 77.128601%, 87.051392%)" offset="0.65625"/><stop stop-opacity="1" stop-color="rgb(100%, 76.904297%, 87.271118%)" offset="0.664062"/><stop stop-opacity="1" stop-color="rgb(100%, 76.679993%, 87.489319%)" offset="0.671875"/><stop stop-opacity="1" stop-color="rgb(100%, 76.455688%, 87.70752%)" offset="0.679688"/><stop stop-opacity="1" stop-color="rgb(100%, 76.229858%, 87.92572%)" offset="0.6875"/><stop stop-opacity="1" stop-color="rgb(100%, 76.005554%, 88.145447%)" offset="0.695312"/><stop stop-opacity="1" stop-color="rgb(100%, 75.78125%, 88.363647%)" offset="0.703125"/><stop stop-opacity="1" stop-color="rgb(100%, 75.556946%, 88.581848%)" offset="0.710937"/><stop stop-opacity="1" stop-color="rgb(100%, 75.332642%, 88.801575%)" offset="0.71875"/><stop stop-opacity="1" stop-color="rgb(100%, 75.108337%, 89.019775%)" offset="0.726562"/><stop stop-opacity="1" stop-color="rgb(100%, 74.884033%, 89.237976%)" offset="0.734375"/><stop stop-opacity="1" stop-color="rgb(100%, 74.658203%, 89.456177%)" offset="0.742188"/><stop stop-opacity="1" stop-color="rgb(100%, 74.433899%, 89.675903%)" offset="0.75"/><stop stop-opacity="1" stop-color="rgb(100%, 74.209595%, 89.894104%)" offset="0.757812"/><stop stop-opacity="1" stop-color="rgb(100%, 73.985291%, 90.112305%)" offset="0.765625"/><stop stop-opacity="1" stop-color="rgb(100%, 73.760986%, 90.332031%)" offset="0.773438"/><stop stop-opacity="1" stop-color="rgb(100%, 73.536682%, 90.550232%)" offset="0.78125"/><stop stop-opacity="1" stop-color="rgb(100%, 73.312378%, 90.768433%)" offset="0.789062"/><stop stop-opacity="1" stop-color="rgb(100%, 73.088074%, 90.988159%)" offset="0.796875"/><stop stop-opacity="1" stop-color="rgb(100%, 72.862244%, 91.20636%)" offset="0.804687"/><stop stop-opacity="1" stop-color="rgb(100%, 72.637939%, 91.424561%)" offset="0.8125"/><stop stop-opacity="1" stop-color="rgb(100%, 72.413635%, 91.642761%)" offset="0.820312"/><stop stop-opacity="1" stop-color="rgb(100%, 72.189331%, 91.862488%)" offset="0.828125"/><stop stop-opacity="1" stop-color="rgb(100%, 71.965027%, 92.080688%)" offset="0.835938"/><stop stop-opacity="1" stop-color="rgb(100%, 71.740723%, 92.298889%)" offset="0.84375"/><stop stop-opacity="1" stop-color="rgb(100%, 71.516418%, 92.518616%)" offset="0.851562"/><stop stop-opacity="1" stop-color="rgb(100%, 71.290588%, 92.736816%)" offset="0.859375"/><stop stop-opacity="1" stop-color="rgb(100%, 71.066284%, 92.955017%)" offset="0.867188"/><stop stop-opacity="1" stop-color="rgb(100%, 70.84198%, 93.173218%)" offset="0.875"/><stop stop-opacity="1" stop-color="rgb(100%, 70.617676%, 93.392944%)" offset="0.882812"/><stop stop-opacity="1" stop-color="rgb(100%, 70.393372%, 93.611145%)" offset="0.890625"/><stop stop-opacity="1" stop-color="rgb(100%, 70.169067%, 93.829346%)" offset="0.898437"/><stop stop-opacity="1" stop-color="rgb(100%, 69.944763%, 94.049072%)" offset="0.90625"/><stop stop-opacity="1" stop-color="rgb(100%, 69.718933%, 94.267273%)" offset="0.914063"/><stop stop-opacity="1" stop-color="rgb(100%, 69.494629%, 94.485474%)" offset="0.921875"/><stop stop-opacity="1" stop-color="rgb(100%, 69.270325%, 94.703674%)" offset="0.929688"/><stop stop-opacity="1" stop-color="rgb(100%, 69.046021%, 94.923401%)" offset="0.9375"/><stop stop-opacity="1" stop-color="rgb(100%, 68.821716%, 95.141602%)" offset="0.945312"/><stop stop-opacity="1" stop-color="rgb(100%, 68.597412%, 95.359802%)" offset="0.953125"/><stop stop-opacity="1" stop-color="rgb(100%, 68.373108%, 95.579529%)" offset="0.960938"/><stop stop-opacity="1" stop-color="rgb(100%, 68.147278%, 95.797729%)" offset="0.96875"/><stop stop-opacity="1" stop-color="rgb(100%, 67.922974%, 96.01593%)" offset="0.976562"/><stop stop-opacity="1" stop-color="rgb(100%, 67.698669%, 96.234131%)" offset="0.984375"/><stop stop-opacity="1" stop-color="rgb(100%, 67.474365%, 96.453857%)" offset="0.992187"/><stop stop-opacity="1" stop-color="rgb(100%, 67.250061%, 96.672058%)" offset="1"/></linearGradient><clipPath id="ccee467416"><path d="M 137 102 L 238 102 L 238 203 L 137 203 Z M 137 102 " clip-rule="nonzero"/></clipPath><clipPath id="51752652b2"><path d="M 187.015625 81.914062 L 293.082031 187.980469 L 188.074219 292.988281 L 82.011719 186.921875 Z M 187.015625 81.914062 " clip-rule="nonzero"/></clipPath><clipPath id="7e7be4f19b"><path d="M 187.015625 81.914062 L 293.082031 187.980469 L 188.074219 292.988281 L 82.011719 186.921875 Z M 187.015625 81.914062 " clip-rule="nonzero"/></clipPath><clipPath id="9ceb6777f6"><path d="M 187.015625 81.914062 L 293.082031 187.980469 L 188.074219 292.988281 L 82.011719 186.921875 Z M 187.015625 81.914062 " clip-rule="nonzero"/></clipPath><clipPath id="57ecfc3d5b"><path d="M 172 209 L 200 209 L 200 219 L 172 219 Z M 172 209 " clip-rule="nonzero"/></clipPath><clipPath id="dc2a6bfe64"><path d="M 187.015625 81.914062 L 293.082031 187.980469 L 188.074219 292.988281 L 82.011719 186.921875 Z M 187.015625 81.914062 " clip-rule="nonzero"/></clipPath><clipPath id="b16cecb92c"><path d="M 187.015625 81.914062 L 293.082031 187.980469 L 188.074219 292.988281 L 82.011719 186.921875 Z M 187.015625 81.914062 " clip-rule="nonzero"/></clipPath><clipPath id="631dfde138"><path d="M 187.015625 81.914062 L 293.082031 187.980469 L 188.074219 292.988281 L 82.011719 186.921875 Z M 187.015625 81.914062 " clip-rule="nonzero"/></clipPath><clipPath id="17c08e2924"><path d="M 179 224 L 197 224 L 197 290 L 179 290 Z M 179 224 " clip-rule="nonzero"/></clipPath><clipPath id="364b559dfe"><path d="M 187.015625 81.914062 L 293.082031 187.980469 L 188.074219 292.988281 L 82.011719 186.921875 Z M 187.015625 81.914062 " clip-rule="nonzero"/></clipPath><clipPath id="afb818a85c"><path d="M 187.015625 81.914062 L 293.082031 187.980469 L 188.074219 292.988281 L 82.011719 186.921875 Z M 187.015625 81.914062 " clip-rule="nonzero"/></clipPath><clipPath id="03b8e1db96"><path d="M 187.015625 81.914062 L 293.082031 187.980469 L 188.074219 292.988281 L 82.011719 186.921875 Z M 187.015625 81.914062 " clip-rule="nonzero"/></clipPath><clipPath id="1039ecf75e"><path d="M 151 118 L 181 118 L 181 185 L 151 185 Z M 151 118 " clip-rule="nonzero"/></clipPath><clipPath id="9a06e3fd85"><path d="M 187.015625 81.914062 L 293.082031 187.980469 L 188.074219 292.988281 L 82.011719 186.921875 Z M 187.015625 81.914062 " clip-rule="nonzero"/></clipPath><clipPath id="f7344bbc16"><path d="M 187.015625 81.914062 L 293.082031 187.980469 L 188.074219 292.988281 L 82.011719 186.921875 Z M 187.015625 81.914062 " clip-rule="nonzero"/></clipPath><clipPath id="0a2df953ef"><path d="M 187.015625 81.914062 L 293.082031 187.980469 L 188.074219 292.988281 L 82.011719 186.921875 Z M 187.015625 81.914062 " clip-rule="nonzero"/></clipPath></defs><rect x="-37.5" width="450" fill="#ffffff" y="-37.499999" height="449.999989" fill-opacity="1"/><rect x="-37.5" width="450" fill="#ffffff" y="-37.499999" height="449.999989" fill-opacity="1"/><rect x="-37.5" fill="url(#e339b71b8b)" width="450" y="-37.499999" height="449.999989"/><g clip-path="url(#ccee467416)"><g clip-path="url(#51752652b2)"><g clip-path="url(#7e7be4f19b)"><g clip-path="url(#9ceb6777f6)"><path fill="#000000" d="M 151.75 187.980469 C 132.25 168.480469 132.234375 136.765625 151.71875 117.28125 C 171.207031 97.796875 202.917969 97.808594 222.421875 117.3125 C 241.921875 136.8125 241.9375 168.527344 222.453125 188.011719 C 202.964844 207.496094 171.25 207.480469 151.75 187.980469 Z M 216.609375 123.125 C 215.640625 122.15625 214.628906 121.238281 213.570312 120.371094 C 212.511719 119.5 211.414062 118.6875 210.277344 117.925781 C 209.140625 117.164062 207.96875 116.460938 206.761719 115.816406 C 205.554688 115.171875 204.320312 114.585938 203.054688 114.0625 C 201.789062 113.539062 200.503906 113.078125 199.195312 112.679688 C 197.886719 112.28125 196.558594 111.949219 195.21875 111.683594 C 193.875 111.414062 192.523438 111.214844 191.164062 111.078125 C 189.800781 110.945312 188.4375 110.875 187.066406 110.875 C 185.699219 110.875 184.335938 110.941406 182.972656 111.074219 C 181.613281 111.210938 180.261719 111.410156 178.917969 111.675781 C 177.578125 111.941406 176.253906 112.273438 174.945312 112.667969 C 173.632812 113.066406 172.347656 113.527344 171.085938 114.050781 C 169.820312 114.570312 168.585938 115.15625 167.378906 115.800781 C 166.171875 116.445312 165 117.144531 163.863281 117.90625 C 162.726562 118.664062 161.628906 119.480469 160.574219 120.347656 C 159.515625 121.214844 158.503906 122.128906 157.539062 123.097656 C 156.570312 124.066406 155.652344 125.078125 154.785156 126.132812 C 153.917969 127.191406 153.105469 128.289062 152.34375 129.425781 C 151.585938 130.5625 150.882812 131.734375 150.238281 132.941406 C 149.59375 134.148438 149.011719 135.382812 148.488281 136.644531 C 147.964844 137.910156 147.503906 139.195312 147.109375 140.503906 C 146.710938 141.8125 146.382812 143.136719 146.113281 144.480469 C 145.847656 145.820312 145.648438 147.171875 145.515625 148.535156 C 145.382812 149.894531 145.316406 151.261719 145.316406 152.628906 C 145.316406 153.996094 145.382812 155.363281 145.519531 156.722656 C 145.652344 158.085938 145.855469 159.4375 146.121094 160.777344 C 146.390625 162.121094 146.722656 163.445312 147.121094 164.753906 C 147.515625 166.0625 147.976562 167.351562 148.503906 168.613281 C 149.027344 169.878906 149.609375 171.113281 150.257812 172.320312 C 150.902344 173.527344 151.605469 174.699219 152.367188 175.839844 C 153.125 176.976562 153.941406 178.074219 154.808594 179.132812 C 155.675781 180.1875 156.59375 181.203125 157.5625 182.171875 C 158.53125 183.136719 159.542969 184.054688 160.601562 184.925781 C 161.660156 185.792969 162.757812 186.605469 163.894531 187.367188 C 165.03125 188.128906 166.203125 188.832031 167.410156 189.476562 C 168.617188 190.121094 169.855469 190.707031 171.117188 191.230469 C 172.382812 191.753906 173.667969 192.214844 174.976562 192.613281 C 176.289062 193.011719 177.613281 193.34375 178.953125 193.609375 C 180.296875 193.878906 181.648438 194.078125 183.011719 194.214844 C 184.371094 194.347656 185.734375 194.417969 187.105469 194.417969 C 188.472656 194.417969 189.835938 194.351562 191.199219 194.21875 C 192.558594 194.085938 193.910156 193.882812 195.253906 193.617188 C 196.59375 193.351562 197.921875 193.019531 199.230469 192.625 C 200.539062 192.226562 201.824219 191.765625 203.085938 191.246094 C 204.351562 190.722656 205.585938 190.136719 206.792969 189.492188 C 208 188.847656 209.171875 188.148438 210.308594 187.386719 C 211.445312 186.628906 212.542969 185.816406 213.597656 184.945312 C 214.65625 184.078125 215.667969 183.164062 216.636719 182.195312 C 217.601562 181.226562 218.515625 180.214844 219.382812 179.15625 C 220.246094 178.101562 221.058594 177.003906 221.816406 175.863281 C 222.574219 174.726562 223.277344 173.554688 223.917969 172.347656 C 224.5625 171.144531 225.144531 169.910156 225.667969 168.644531 C 226.1875 167.382812 226.648438 166.09375 227.042969 164.785156 C 227.441406 163.476562 227.769531 162.152344 228.035156 160.8125 C 228.300781 159.46875 228.5 158.121094 228.632812 156.757812 C 228.765625 155.398438 228.832031 154.035156 228.832031 152.667969 C 228.832031 151.296875 228.765625 149.933594 228.628906 148.574219 C 228.496094 147.210938 228.292969 145.863281 228.027344 144.519531 C 227.761719 143.179688 227.429688 141.851562 227.03125 140.542969 C 226.632812 139.234375 226.175781 137.949219 225.652344 136.683594 C 225.128906 135.421875 224.542969 134.1875 223.898438 132.980469 C 223.253906 131.773438 222.554688 130.601562 221.792969 129.460938 C 221.035156 128.324219 220.222656 127.226562 219.355469 126.167969 C 218.488281 125.109375 217.570312 124.097656 216.605469 123.128906 Z M 216.609375 123.125 " fill-opacity="1" fill-rule="nonzero"/></g></g></g></g><g clip-path="url(#57ecfc3d5b)"><g clip-path="url(#dc2a6bfe64)"><g clip-path="url(#b16cecb92c)"><g clip-path="url(#631dfde138)"><path fill="#000000" d="M 173.46875 217.339844 C 173.148438 217.015625 172.878906 216.65625 172.664062 216.253906 C 172.449219 215.855469 172.296875 215.429688 172.210938 214.984375 C 172.121094 214.539062 172.097656 214.089844 172.140625 213.636719 C 172.183594 213.183594 172.292969 212.75 172.464844 212.328125 C 172.636719 211.910156 172.867188 211.523438 173.15625 211.171875 C 173.441406 210.820312 173.773438 210.515625 174.152344 210.261719 C 174.53125 210.007812 174.933594 209.816406 175.371094 209.683594 C 175.804688 209.546875 176.25 209.480469 176.703125 209.480469 L 194.777344 209.417969 C 195.089844 209.398438 195.402344 209.410156 195.710938 209.457031 C 196.023438 209.5 196.324219 209.574219 196.621094 209.679688 C 196.917969 209.785156 197.199219 209.917969 197.464844 210.082031 C 197.734375 210.246094 197.984375 210.433594 198.210938 210.648438 C 198.441406 210.863281 198.648438 211.097656 198.828125 211.355469 C 199.011719 211.609375 199.164062 211.882812 199.289062 212.167969 C 199.414062 212.457031 199.511719 212.753906 199.578125 213.058594 C 199.640625 213.367188 199.675781 213.675781 199.679688 213.992188 C 199.679688 214.304688 199.648438 214.613281 199.589844 214.921875 C 199.527344 215.230469 199.433594 215.527344 199.3125 215.816406 C 199.191406 216.105469 199.039062 216.378906 198.863281 216.636719 C 198.683594 216.894531 198.480469 217.132812 198.253906 217.347656 C 198.027344 217.5625 197.78125 217.753906 197.515625 217.921875 C 197.25 218.085938 196.96875 218.226562 196.675781 218.332031 C 196.378906 218.441406 196.078125 218.519531 195.769531 218.566406 C 195.457031 218.613281 195.148438 218.628906 194.832031 218.613281 L 176.761719 218.671875 C 175.476562 218.6875 174.382812 218.242188 173.46875 217.339844 Z M 173.46875 217.339844 " fill-opacity="1" fill-rule="nonzero"/></g></g></g></g><g clip-path="url(#17c08e2924)"><g clip-path="url(#364b559dfe)"><g clip-path="url(#afb818a85c)"><g clip-path="url(#03b8e1db96)"><path fill="#000000" d="M 182.035156 286.941406 C 181.28125 286.191406 180.703125 285.324219 180.300781 284.339844 C 179.898438 283.355469 179.707031 282.332031 179.71875 281.265625 L 180.273438 232.78125 C 180.28125 232.261719 180.335938 231.75 180.441406 231.242188 C 180.550781 230.738281 180.707031 230.246094 180.910156 229.769531 C 181.113281 229.292969 181.359375 228.839844 181.652344 228.410156 C 181.945312 227.984375 182.277344 227.589844 182.648438 227.226562 C 183.019531 226.867188 183.421875 226.542969 183.855469 226.261719 C 184.289062 225.976562 184.75 225.738281 185.230469 225.546875 C 185.710938 225.355469 186.207031 225.210938 186.714844 225.117188 C 187.226562 225.019531 187.738281 224.976562 188.257812 224.984375 C 188.777344 224.988281 189.289062 225.046875 189.796875 225.152344 C 190.304688 225.261719 190.796875 225.417969 191.273438 225.621094 C 191.75 225.824219 192.199219 226.074219 192.628906 226.367188 C 193.054688 226.660156 193.453125 226.992188 193.8125 227.363281 C 194.175781 227.734375 194.5 228.136719 194.78125 228.570312 C 195.066406 229.003906 195.304688 229.464844 195.496094 229.945312 C 195.6875 230.425781 195.832031 230.921875 195.929688 231.429688 C 196.023438 231.941406 196.070312 232.453125 196.0625 232.972656 L 195.507812 281.457031 C 195.5 282.234375 195.378906 282.992188 195.144531 283.734375 C 194.914062 284.476562 194.578125 285.167969 194.140625 285.808594 C 193.703125 286.449219 193.183594 287.015625 192.578125 287.503906 C 191.976562 287.992188 191.316406 288.382812 190.59375 288.671875 C 189.875 288.964844 189.128906 289.148438 188.355469 289.222656 C 187.582031 289.292969 186.816406 289.253906 186.054688 289.097656 C 185.292969 288.945312 184.570312 288.683594 183.886719 288.316406 C 183.203125 287.949219 182.585938 287.492188 182.035156 286.941406 Z M 182.035156 286.941406 " fill-opacity="1" fill-rule="nonzero"/></g></g></g></g><g clip-path="url(#1039ecf75e)"><g clip-path="url(#9a06e3fd85)"><g clip-path="url(#f7344bbc16)"><g clip-path="url(#0a2df953ef)"><path fill="#000000" d="M 162.140625 177.476562 C 157.585938 172.921875 152.867188 165.59375 151.375 154.195312 C 150.066406 144.191406 154.144531 134.894531 163.167969 127.3125 C 167.355469 123.824219 171.96875 121.039062 177.007812 118.960938 C 177.3125 118.84375 177.628906 118.792969 177.953125 118.804688 C 178.28125 118.816406 178.59375 118.886719 178.890625 119.019531 C 179.1875 119.15625 179.445312 119.339844 179.671875 119.578125 C 179.894531 119.816406 180.0625 120.085938 180.179688 120.390625 C 180.296875 120.695312 180.351562 121.011719 180.339844 121.335938 C 180.332031 121.664062 180.261719 121.972656 180.128906 122.273438 C 180 122.570312 179.8125 122.832031 179.578125 123.054688 C 179.34375 123.28125 179.074219 123.453125 178.769531 123.570312 C 174.214844 125.476562 170.042969 128.007812 166.25 131.167969 C 158.542969 137.6875 155.1875 145.214844 156.273438 153.550781 C 158.960938 174.128906 173.53125 179.457031 173.679688 179.507812 C 173.992188 179.609375 174.277344 179.769531 174.527344 179.988281 C 174.777344 180.203125 174.976562 180.460938 175.125 180.757812 C 175.273438 181.054688 175.355469 181.371094 175.375 181.699219 C 175.398438 182.03125 175.351562 182.355469 175.242188 182.667969 C 175.132812 182.980469 174.96875 183.257812 174.746094 183.503906 C 174.523438 183.75 174.261719 183.945312 173.964844 184.085938 C 173.664062 184.226562 173.347656 184.304688 173.015625 184.316406 C 172.683594 184.328125 172.363281 184.277344 172.054688 184.164062 C 171.675781 184.042969 167 182.335938 162.140625 177.476562 Z M 162.140625 177.476562 " fill-opacity="1" fill-rule="nonzero"/></g></g></g></g></svg>